<?xml version="1.0" encoding="UTF-8"?><svg id="Layer_1" xmlns="http://www.w3.org/2000/svg" viewBox="0 0 72 72"><defs><style>.cls-1{fill:#231f20;}</style></defs><path class="cls-1" d="M32.19,31.33c1.03-.99,2.44-1.59,3.98-1.59,3.18,0,5.76,2.58,5.76,5.76,0,1.47-.55,2.8-1.45,3.82"/><line class="cls-1" x1="5.62" y1="5" x2="66.11" y2="65.5"/><path class="cls-1" d="M66.11,67.07c-.4,0-.8-.15-1.11-.46L4.51,6.11c-.61-.61-.61-1.6,0-2.22,.61-.61,1.6-.61,2.22,0l60.5,60.5c.61,.61,.61,1.6,0,2.22-.31,.31-.71,.46-1.11,.46Z"/><g><path class="cls-1" d="M44.68,50.02c-2.5,1.47-5.4,2.33-8.5,2.33-9.28,0-16.84-7.56-16.84-16.85,0-3.1,.86-6,2.32-8.5l-2.29-2.29c-2,3.11-3.17,6.81-3.17,10.78,0,11.02,8.96,19.99,19.97,19.99,3.97,0,7.67-1.17,10.79-3.18l-2.29-2.29Z"/><path class="cls-1" d="M23.51,24.42c3.09-3.53,7.61-5.78,12.66-5.78,9.28,0,16.84,7.56,16.84,16.85,0,5.05-2.24,9.57-5.76,12.66l2.23,2.23c4.09-3.66,6.67-8.98,6.67-14.89,0-11.02-8.96-19.99-19.97-19.99-5.91,0-11.23,2.59-14.89,6.69l2.23,2.23Z"/></g><g><path class="cls-1" d="M45.62,50.97c-9.92,3.02-21.07,1.01-29.37-6.1l-11.27-9.65,11.97-9.67c.61-.49,1.23-.95,1.87-1.39l-2.25-2.25c-.54,.38-1.07,.78-1.59,1.2L1.55,33.97c-.36,.29-.58,.73-.58,1.2,0,.47,.19,.91,.55,1.21l12.7,10.87c6.4,5.48,14.35,8.21,22.29,8.21,3.93,0,7.86-.68,11.6-2.02l-2.48-2.48Z"/><path class="cls-1" d="M70.83,34l-12.06-10.29c-11.21-9.56-27.1-10.77-39.51-3.53l2.29,2.29c11.16-6.12,25.21-4.88,35.18,3.62l10.7,9.13-10.05,9.09c-2.58,2.33-5.47,4.16-8.52,5.47l2.37,2.37c2.95-1.4,5.73-3.23,8.26-5.51l11.37-10.28c.33-.3,.52-.73,.52-1.19s-.21-.88-.55-1.17Z"/></g><path class="cls-1" d="M30.43,35.77c.14,2.96,2.51,5.33,5.47,5.47l-5.47-5.47Z"/></svg>