<?xml version="1.0" encoding="UTF-8"?><svg id="Layer_1" xmlns="http://www.w3.org/2000/svg" viewBox="0 0 72 72"><defs><style>.cls-1{fill:#231f20;}</style></defs><path class="cls-1" d="M36.33,56.42c-8.12,0-16.24-2.79-22.79-8.4L.56,36.91C.2,36.6,0,36.15,0,35.67c0-.48,.23-.92,.6-1.22l13.74-11.1c13.12-10.59,31.94-10.34,44.77,.6l12.33,10.52c.35,.3,.56,.74,.56,1.2s-.19,.9-.53,1.21l-11.63,10.51c-6.65,6.01-15.08,9.03-23.51,9.03ZM4.11,35.73l11.52,9.86c12.13,10.39,30.22,10.14,42.07-.57l10.27-9.29-10.94-9.34c-11.65-9.94-28.76-10.17-40.68-.55l-12.24,9.89Z"/><path class="cls-1" d="M36,56.43c-11.26,0-20.42-9.16-20.42-20.42S24.74,15.59,36,15.59s20.42,9.16,20.42,20.42-9.16,20.42-20.42,20.42Zm0-37.64c-9.49,0-17.22,7.72-17.22,17.22s7.72,17.22,17.22,17.22,17.22-7.72,17.22-17.22-7.72-17.22-17.22-17.22Z"/><circle class="cls-1" cx="36" cy="36.01" r="5.89"/></svg>